<svg width="86" height="26" viewBox="0 0 86 26" fill="none" xmlns="http://www.w3.org/2000/svg">
<path d="M14.522 6.624C14.522 7.68133 14.2793 8.652 13.794 9.536C13.3087 10.4027 12.5633 11.1047 11.558 11.642C10.5527 12.1793 9.30467 12.448 7.814 12.448H5.058V19H0.612V0.747999H7.814C9.27 0.747999 10.5007 0.999333 11.506 1.502C12.5113 2.00467 13.2653 2.698 13.768 3.582C14.2707 4.466 14.522 5.48 14.522 6.624ZM7.476 8.912C8.32533 8.912 8.958 8.71267 9.374 8.314C9.79 7.91533 9.998 7.352 9.998 6.624C9.998 5.896 9.79 5.33267 9.374 4.934C8.958 4.53533 8.32533 4.336 7.476 4.336H5.058V8.912H7.476ZM15.9526 11.72C15.9526 10.2293 16.2299 8.92067 16.7846 7.794C17.3566 6.66733 18.1279 5.80067 19.0986 5.194C20.0693 4.58733 21.1526 4.284 22.3486 4.284C23.3713 4.284 24.2639 4.492 25.0266 4.908C25.8066 5.324 26.4046 5.87 26.8206 6.546V4.492H31.2666V19H26.8206V16.946C26.3873 17.622 25.7806 18.168 25.0006 18.584C24.2379 19 23.3453 19.208 22.3226 19.208C21.1439 19.208 20.0693 18.9047 19.0986 18.298C18.1279 17.674 17.3566 16.7987 16.7846 15.672C16.2299 14.528 15.9526 13.2107 15.9526 11.72ZM26.8206 11.746C26.8206 10.6367 26.5086 9.76133 25.8846 9.12C25.2779 8.47867 24.5326 8.158 23.6486 8.158C22.7646 8.158 22.0106 8.47867 21.3866 9.12C20.7799 9.744 20.4766 10.6107 20.4766 11.72C20.4766 12.8293 20.7799 13.7133 21.3866 14.372C22.0106 15.0133 22.7646 15.334 23.6486 15.334C24.5326 15.334 25.2779 15.0133 25.8846 14.372C26.5086 13.7307 26.8206 12.8553 26.8206 11.746ZM49.3031 4.492L40.2031 25.89H35.4191L38.7471 18.506L32.8451 4.492H37.8111L41.1651 13.566L44.4931 4.492H49.3031Z" fill="black"/>
<path d="M63.0268 6.52C62.6975 5.91333 62.2208 5.454 61.5968 5.142C60.9902 4.81267 60.2708 4.648 59.4388 4.648C58.0002 4.648 56.8475 5.12467 55.9808 6.078C55.1142 7.014 54.6808 8.27067 54.6808 9.848C54.6808 11.5293 55.1315 12.8467 56.0328 13.8C56.9515 14.736 58.2082 15.204 59.8028 15.204C60.8948 15.204 61.8135 14.9267 62.5588 14.372C63.3215 13.8173 63.8762 13.02 64.2228 11.98H58.5808V8.704H68.2528V12.838C67.9235 13.9473 67.3602 14.9787 66.5628 15.932C65.7828 16.8853 64.7862 17.6567 63.5728 18.246C62.3595 18.8353 60.9902 19.13 59.4648 19.13C57.6622 19.13 56.0502 18.74 54.6288 17.96C53.2248 17.1627 52.1242 16.062 51.3268 14.658C50.5468 13.254 50.1568 11.6507 50.1568 9.848C50.1568 8.04533 50.5468 6.442 51.3268 5.038C52.1242 3.61667 53.2248 2.516 54.6288 1.736C56.0328 0.938666 57.6362 0.539999 59.4388 0.539999C61.6228 0.539999 63.4602 1.06867 64.9508 2.126C66.4588 3.18333 67.4555 4.648 67.9408 6.52H63.0268ZM80.0235 19L76.2275 12.11H75.1615V19H70.7155V0.747999H78.1775C79.6162 0.747999 80.8382 0.999333 81.8435 1.502C82.8662 2.00467 83.6288 2.698 84.1315 3.582C84.6342 4.44867 84.8855 5.41933 84.8855 6.494C84.8855 7.70733 84.5389 8.79067 83.8455 9.744C83.1695 10.6973 82.1642 11.3733 80.8295 11.772L85.0415 19H80.0235ZM75.1615 8.964H77.9175C78.7322 8.964 79.3388 8.76467 79.7375 8.366C80.1535 7.96733 80.3615 7.404 80.3615 6.676C80.3615 5.98267 80.1535 5.43667 79.7375 5.038C79.3388 4.63933 78.7322 4.44 77.9175 4.44H75.1615V8.964Z" fill="#006EC7"/>
</svg>
