<svg width="32" height="32" viewBox="0 0 32 32" fill="none" xmlns="http://www.w3.org/2000/svg">
<path d="M20.5 16C20.5 14.8065 20.0259 13.6619 19.182 12.818C18.3381 11.9741 17.1935 11.5 16 11.5C14.8065 11.5 13.6619 11.9741 12.818 12.818C11.9741 13.6619 11.5 14.8065 11.5 16C11.5 17.1935 11.9741 18.3381 12.818 19.182C13.6619 20.0259 14.8065 20.5 16 20.5C17.1935 20.5 18.3381 20.0259 19.182 19.182C20.0259 18.3381 20.5 17.1935 20.5 16ZM16 12.5C16.9283 12.5 17.8185 12.8687 18.4749 13.5251C19.1313 14.1815 19.5 15.0717 19.5 16C19.5 16.9283 19.1313 17.8185 18.4749 18.4749C17.8185 19.1313 16.9283 19.5 16 19.5C15.0717 19.5 14.1815 19.1313 13.5251 18.4749C12.8687 17.8185 12.5 16.9283 12.5 16C12.5 15.0717 12.8687 14.1815 13.5251 13.5251C14.1815 12.8687 15.0717 12.5 16 12.5Z" fill="#41464A" stroke="#41464A"/>
<path fill-rule="evenodd" clip-rule="evenodd" d="M26.236 14.1947C26.7947 15 27 15.6307 27 16C27 16.3693 26.7947 17 26.236 17.8053C25.6947 18.5827 24.892 19.4267 23.876 20.2067C21.84 21.7693 19.0493 23 16 23C12.9507 23 10.16 21.7693 8.124 20.2067C7.108 19.4267 6.30533 18.5827 5.764 17.8053C5.20533 17 5 16.3693 5 16C5 15.6307 5.20533 15 5.764 14.1947C6.30533 13.4173 7.108 12.5733 8.124 11.7933C10.16 10.2307 12.9507 9 16 9C19.0493 9 21.84 10.2307 23.876 11.7933C24.892 12.5733 25.6947 13.4173 26.236 14.1947ZM25.0947 10.2067C22.7867 8.436 19.5787 7 16 7C12.4213 7 9.21333 8.436 6.90667 10.2067C5.75067 11.0933 4.796 12.0827 4.12133 13.0547C3.46533 14 3 15.036 3 16C3 16.964 3.46667 18 4.12133 18.9453C4.796 19.9173 5.75067 20.9053 6.90533 21.7933C9.212 23.564 12.4213 25 16 25C19.5787 25 22.7867 23.564 25.0933 21.7933C26.2493 20.9067 27.204 19.9173 27.8787 18.9453C28.5333 18 29 16.964 29 16C29 15.036 28.5333 14 27.8787 13.0547C27.204 12.0827 26.2493 11.0947 25.0947 10.2067Z" fill="#41464A"/>
</svg>
